<?xml version="1.0" encoding="UTF-8"?>
<svg xmlns="http://www.w3.org/2000/svg" viewBox="0 0 700 320" width="700" height="320">
  <defs>
    <marker id="arrow" markerWidth="10" markerHeight="7" refX="10" refY="3.5" orient="auto">
      <polygon points="0 0, 10 3.5, 0 7" fill="#555"/>
    </marker>
    <filter id="shadow">
      <feDropShadow dx="1" dy="1" stdDeviation="1" flood-opacity="0.15"/>
    </filter>
  </defs>

  <!-- 背景 -->
  <rect width="700" height="320" fill="#fafafa" rx="8"/>

  <!-- 应用系统 -->
  <rect x="40" y="30" width="160" height="55" rx="8" fill="#e8f0fe" stroke="#4a86e8" stroke-width="2" filter="url(#shadow)"/>
  <text x="120" y="62" text-anchor="middle" font-size="14" font-weight="bold" fill="#333">应用系统</text>

  <!-- DeepSeek SDK -->
  <rect x="40" y="130" width="160" height="55" rx="8" fill="#e8f0fe" stroke="#4a86e8" stroke-width="2" filter="url(#shadow)"/>
  <text x="120" y="162" text-anchor="middle" font-size="14" font-weight="bold" fill="#333">DeepSeek SDK</text>

  <!-- DeepSeek API -->
  <rect x="280" y="130" width="170" height="55" rx="8" fill="#fce8e6" stroke="#d93025" stroke-width="2" filter="url(#shadow)"/>
  <text x="365" y="162" text-anchor="middle" font-size="14" font-weight="bold" fill="#333">DeepSeek API</text>

  <!-- 大语言模型 -->
  <rect x="520" y="30" width="140" height="55" rx="8" fill="#e6f4ea" stroke="#34a853" stroke-width="2" filter="url(#shadow)"/>
  <text x="590" y="62" text-anchor="middle" font-size="14" font-weight="bold" fill="#333">大语言模型</text>

  <!-- 箭头：应用系统→SDK -->
  <line x1="120" y1="85" x2="120" y2="120" stroke="#555" stroke-width="2" marker-end="url(#arrow)"/>
  <text x="130" y="108" font-size="11" fill="#555">构造messages数组</text>

  <!-- 箭头：SDK→API -->
  <line x1="200" y1="155" x2="270" y2="155" stroke="#555" stroke-width="2" marker-end="url(#arrow)"/>
  <text x="210" y="148" font-size="11" fill="#555">POST /v1/chat/completions</text>

  <!-- 箭头：API→模型 -->
  <line x1="365" y1="130" x2="580" y2="95" stroke="#555" stroke-width="2" marker-end="url(#arrow)"/>
  <text x="400" y="108" font-size="11" fill="#555">模型推理</text>

  <!-- 箭头：模型→API -->
  <line x1="590" y1="85" x2="400" y2="120" stroke="#555" stroke-width="2" marker-end="url(#arrow)"/>
  <text x="430" y="106" font-size="11" fill="#555">生成回复文本</text>

  <!-- 箭头：API→SDK -->
  <line x1="280" y1="170" x2="210" y2="170" stroke="#555" stroke-width="2" marker-end="url(#arrow)"/>
  <text x="215" y="163" font-size="11" fill="#555">返回JSON响应</text>

  <!-- 箭头：SDK→应用 -->
  <line x1="120" y1="185" x2="120" y2="210" stroke="#555" stroke-width="2" marker-end="url(#arrow)"/>
  <text x="130" y="205" font-size="11" fill="#555">解析回复</text>

  <!-- 标注 -->
  <text x="350" y="280" text-anchor="middle" font-size="14" fill="#666" font-style="italic">图2-1 DeepSeek API调用流程图</text>
</svg>