<?xml version="1.0" encoding="UTF-8"?>
<svg xmlns="http://www.w3.org/2000/svg" viewBox="0 0 750 480" width="750" height="480">
  <defs>
    <marker id="arrow2" markerWidth="10" markerHeight="7" refX="10" refY="3.5" orient="auto">
      <polygon points="0 0, 10 3.5, 0 7" fill="#555"/>
    </marker>
    <filter id="sh"><feDropShadow dx="1" dy="1" stdDeviation="1" flood-opacity="0.12"/></filter>
  </defs>

  <rect width="750" height="480" fill="#fafafa" rx="8"/>

  <!-- ===== 第1层：LLM推理层 ===== -->
  <rect x="15" y="10" width="720" height="90" rx="6" fill="#e6f4ea" stroke="#34a853" stroke-width="1.5"/>
  <text x="30" y="35" font-size="13" font-weight="bold" fill="#2e7d32">LLM推理层</text>

  <rect x="250" y="45" width="220" height="40" rx="6" fill="#fff" stroke="#34a853" stroke-width="1.5" filter="url(#sh)"/>
  <text x="360" y="70" text-anchor="middle" font-size="13" font-weight="bold" fill="#333">DeepSeek API (deepseek-chat)</text>

  <!-- ===== 第2层：后端服务层 ===== -->
  <rect x="15" y="115" width="720" height="185" rx="6" fill="#e8f0fe" stroke="#4a86e8" stroke-width="1.5"/>
  <text x="30" y="140" font-size="13" font-weight="bold" fill="#1967d2">后端服务层 (Node.js + Express + WebSocket)</text>

  <!-- 引擎 -->
  <rect x="40" y="155" width="200" height="65" rx="6" fill="#fff" stroke="#4a86e8" stroke-width="1.5" filter="url(#sh)"/>
  <text x="140" y="180" text-anchor="middle" font-size="13" font-weight="bold" fill="#333">DynaHMRC引擎</text>
  <text x="140" y="200" text-anchor="middle" font-size="10" fill="#666">四阶段流程编排</text>

  <!-- Agent管理器 -->
  <rect x="280" y="155" width="200" height="65" rx="6" fill="#fff" stroke="#4a86e8" stroke-width="1.5" filter="url(#sh)"/>
  <text x="380" y="180" text-anchor="middle" font-size="13" font-weight="bold" fill="#333">Agent管理器</text>
  <text x="380" y="200" text-anchor="middle" font-size="10" fill="#666">LLM调用·状态维护</text>

  <!-- 仿真环境 -->
  <rect x="520" y="155" width="190" height="65" rx="6" fill="#fff" stroke="#4a86e8" stroke-width="1.5" filter="url(#sh)"/>
  <text x="615" y="180" text-anchor="middle" font-size="13" font-weight="bold" fill="#333">仿真环境</text>
  <text x="615" y="200" text-anchor="middle" font-size="10" fill="#666">SimEnvironment</text>

  <!-- WebSocket -->
  <rect x="280" y="240" width="200" height="40" rx="6" fill="#fff" stroke="#4a86e8" stroke-width="1.5" filter="url(#sh)"/>
  <text x="380" y="264" text-anchor="middle" font-size="13" font-weight="bold" fill="#333">WebSocket广播 (ws库)</text>

  <!-- 箭头：引擎→Agent -->
  <line x1="240" y1="185" x2="275" y2="185" stroke="#555" stroke-width="1.5" marker-end="url(#arrow2)"/>
  <text x="255" y="178" font-size="9" fill="#555">管理</text>

  <!-- 箭头：引擎→仿真 -->
  <line x1="240" y1="195" x2="515" y2="195" stroke="#555" stroke-width="1.5" marker-end="url(#arrow2)"/>
  <text x="350" y="190" font-size="9" fill="#555">维护</text>

  <!-- 箭头：Agent→LLM -->
  <line x1="380" y1="155" x2="380" y2="115" stroke="#555" stroke-width="1.5" stroke-dasharray="5,3" marker-end="url(#arrow2)"/>
  <text x="390" y="140" font-size="9" fill="#555">调用</text>

  <!-- 箭头：WebSocket→前端 -->
  <line x1="480" y1="260" x2="600" y2="300" stroke="#555" stroke-width="1.5" marker-end="url(#arrow2)" stroke-dasharray="5,3"/>

  <!-- ===== 第3层：前端展示层 ===== -->
  <rect x="15" y="320" width="720" height="80" rx="6" fill="#fef7e0" stroke="#f9ab00" stroke-width="1.5"/>
  <text x="30" y="345" font-size="13" font-weight="bold" fill="#e37400">前端展示层 (React + Vite + Canvas 2D)</text>

  <rect x="40" y="355" width="140" height="35" rx="5" fill="#fff" stroke="#f9ab00" stroke-width="1" filter="url(#sh)"/>
  <text x="110" y="377" text-anchor="middle" font-size="11" fill="#333">配置面板</text>

  <rect x="200" y="355" width="140" height="35" rx="5" fill="#fff" stroke="#f9ab00" stroke-width="1" filter="url(#sh)"/>
  <text x="270" y="377" text-anchor="middle" font-size="11" fill="#333">2D仿真画布</text>

  <rect x="360" y="355" width="140" height="35" rx="5" fill="#fff" stroke="#f9ab00" stroke-width="1" filter="url(#sh)"/>
  <text x="430" y="377" text-anchor="middle" font-size="11" fill="#333">对话日志</text>

  <rect x="520" y="355" width="140" height="35" rx="5" fill="#fff" stroke="#f9ab00" stroke-width="1" filter="url(#sh)"/>
  <text x="590" y="377" text-anchor="middle" font-size="11" fill="#333">状态面板</text>

  <!-- ===== 第4层：3D仿真层 ===== -->
  <rect x="15" y="415" width="720" height="50" rx="6" fill="#fce8e6" stroke="#d93025" stroke-width="1.5"/>
  <text x="30" y="440" font-size="13" font-weight="bold" fill="#c5221f">3D仿真层 (可选 — BestMan / PyBullet)</text>

  <rect x="280" y="425" width="200" height="30" rx="5" fill="#fff" stroke="#d93025" stroke-width="1"/>
  <text x="380" y="445" text-anchor="middle" font-size="11" fill="#333">机械臂IK·无人机·物理仿真</text>

  <!-- 标注 -->
  <text x="375" y="475" text-anchor="middle" font-size="13" fill="#666" font-style="italic">图4-1 系统总体架构图</text>
</svg>