<?xml version="1.0" encoding="UTF-8"?>
<svg xmlns="http://www.w3.org/2000/svg" viewBox="0 0 750 480" width="750" height="480">
  <defs>
    <marker id="a3" markerWidth="10" markerHeight="7" refX="10" refY="3.5" orient="auto">
      <polygon points="0 0, 10 3.5, 0 7" fill="#555"/>
    </marker>
  </defs>

  <rect width="750" height="480" fill="#fafafa" rx="8"/>

  <!-- 左侧时间轴 -->
  <line x1="90" y1="30" x2="90" y2="440" stroke="#ccc" stroke-width="3" stroke-dasharray="6,4"/>

  <!-- === 阶段一 === -->
  <rect x="140" y="20" width="560" height="90" rx="8" fill="#e3f2fd" stroke="#1976d2" stroke-width="2"/>
  <text x="160" y="48" font-size="16" font-weight="bold" fill="#1565c0">阶段一：自我描述 (Self-Description)</text>
  <text x="160" y="70" font-size="12" fill="#333">所有机器人同时进行自我介绍，输出内容包含类型、能力、局限性</text>
  <text x="160" y="90" font-size="12" fill="#333">和团队角色定位。建立团队共识，了解成员能力边界。</text>
  <circle cx="90" cy="65" r="12" fill="#1976d2"/>
  <text x="90" y="70" text-anchor="middle" font-size="12" fill="#fff" font-weight="bold">1</text>
  <line x1="102" y1="65" x2="135" y2="65" stroke="#555" stroke-width="2" marker-end="url(#a3)"/>

  <!-- 箭头 -->
  <line x1="420" y1="110" x2="420" y2="125" stroke="#555" stroke-width="2" marker-end="url(#a3)"/>

  <!-- === 阶段二 === -->
  <rect x="140" y="130" width="560" height="90" rx="8" fill="#fff3e0" stroke="#f57c00" stroke-width="2"/>
  <text x="160" y="158" font-size="16" font-weight="bold" fill="#e65100">阶段二：任务分配与竞选</text>
  <text x="160" y="180" font-size="12" fill="#333">各机器人阅读他人自我介绍后，提出分工方案和竞选演讲。</text>
  <text x="160" y="200" font-size="12" fill="#333">方案需匹配任务需求与各成员能力，实现并行效率最大化。</text>
  <circle cx="90" cy="175" r="12" fill="#f57c00"/>
  <text x="90" y="180" text-anchor="middle" font-size="12" fill="#fff" font-weight="bold">2</text>
  <line x1="102" y1="175" x2="135" y2="175" stroke="#555" stroke-width="2" marker-end="url(#a3)"/>

  <line x1="420" y1="220" x2="420" y2="235" stroke="#555" stroke-width="2" marker-end="url(#a3)"/>

  <!-- === 阶段三 === -->
  <rect x="140" y="240" width="560" height="80" rx="8" fill="#e8f5e9" stroke="#388e3c" stroke-width="2"/>
  <text x="160" y="268" font-size="16" font-weight="bold" fill="#2e7d32">阶段三：领导选举 (Leader Election)</text>
  <text x="160" y="290" font-size="12" fill="#333">所有机器人投票选举领导者。系统收集投票并统计，</text>
  <text x="160" y="308" font-size="12" fill="#333">得票最高者当选为团队领导。</text>
  <circle cx="90" cy="280" r="12" fill="#388e3c"/>
  <text x="90" y="285" text-anchor="middle" font-size="12" fill="#fff" font-weight="bold">3</text>
  <line x1="102" y1="280" x2="135" y2="280" stroke="#555" stroke-width="2" marker-end="url(#a3)"/>

  <line x1="420" y1="320" x2="420" y2="335" stroke="#555" stroke-width="2" marker-end="url(#a3)"/>

  <!-- === 阶段四 === -->
  <rect x="140" y="340" width="560" height="100" rx="8" fill="#fce4ec" stroke="#c62828" stroke-width="2"/>
  <text x="160" y="368" font-size="16" font-weight="bold" fill="#b71c1c">阶段四：执行与反思</text>
  <text x="160" y="390" font-size="12" fill="#333">循环执行：Agent决策动作→仿真执行→反馈→下一决策</text>
  <text x="160" y="410" font-size="12" fill="#333">每N步反思：Agent总结失败经验→提出改进计划→</text>
  <text x="160" y="428" font-size="12" fill="#333">领导者汇总→更新协作计划。形成闭环控制。</text>
  <circle cx="90" cy="385" r="12" fill="#c62828"/>
  <text x="90" y="390" text-anchor="middle" font-size="12" fill="#fff" font-weight="bold">4</text>
  <line x1="102" y1="385" x2="135" y2="385" stroke="#555" stroke-width="2" marker-end="url(#a3)"/>

  <text x="375" y="475" text-anchor="middle" font-size="13" fill="#666" font-style="italic">图4-2 四阶段协作流程图</text>
</svg>